<?xml version="1.0" standalone="no"?>
<!DOCTYPE svg PUBLIC "-//W3C//DTD SVG 20010904//EN"
 "http://www.w3.org/TR/2001/REC-SVG-20010904/DTD/svg10.dtd">
<svg version="1.0" xmlns="http://www.w3.org/2000/svg"
 width="512.000000pt" height="512.000000pt" viewBox="0 0 512.000000 512.000000"
 preserveAspectRatio="xMidYMid meet">

<g transform="translate(0.000000,512.000000) scale(0.100000,-0.100000)"
fill="#000000" stroke="none">
<path d="M1040 3827 c-49 -16 -133 -102 -148 -153 -7 -23 -12 -67 -12 -98 l0
-56 -96 0 c-53 0 -115 -5 -138 -12 -78 -23 -166 -135 -166 -212 0 -14 -17 -16
-135 -16 -131 0 -137 -1 -160 -25 l-25 -24 0 -271 0 -271 25 -24 c23 -24 29
-25 160 -25 118 0 135 -2 135 -16 0 -77 88 -189 166 -212 23 -7 85 -12 138
-12 l96 0 0 -56 c0 -31 5 -75 12 -98 16 -55 99 -138 154 -154 61 -18 260 -16
317 4 57 19 128 93 145 152 7 24 12 108 12 216 l0 176 80 0 80 0 0 -89 c0 -49
3 -96 6 -105 3 -8 80 -71 170 -138 162 -121 166 -125 234 -228 l70 -106 0
-147 0 -147 -55 0 c-46 0 -60 -4 -80 -25 -25 -24 -25 -26 -25 -215 0 -189 0
-191 25 -215 l24 -25 671 0 671 0 24 25 c25 24 25 26 25 215 0 189 0 191 -25
215 -20 21 -34 25 -80 25 l-55 0 0 148 0 147 80 120 80 120 0 213 0 212 80 0
80 0 0 -176 c0 -214 7 -241 75 -309 63 -64 100 -75 247 -75 146 0 192 15 251
80 49 55 67 103 67 184 l0 56 98 0 c129 0 178 17 235 80 40 44 67 103 67 144
0 14 17 16 135 16 131 0 137 1 160 25 l25 24 0 271 0 271 -25 24 c-23 24 -29
25 -160 25 -118 0 -135 2 -135 16 0 77 -88 189 -166 212 -23 7 -85 12 -138 12
l-96 0 0 56 c0 81 -18 129 -67 184 -59 65 -105 80 -251 80 -147 0 -184 -11
-247 -75 -68 -68 -75 -95 -75 -309 l0 -176 -80 0 c-67 0 -80 3 -80 16 0 77
-88 189 -166 212 -52 15 -109 14 -154 -2 -34 -13 -36 -12 -81 29 -87 77 -200
86 -291 23 -28 -19 -28 -19 -55 0 -62 43 -139 53 -211 28 -39 -14 -40 -14 -68
16 -38 40 -119 78 -168 78 -69 0 -118 -21 -171 -75 -62 -61 -75 -101 -75 -229
l0 -96 -240 0 -240 0 0 176 c0 108 -5 192 -12 216 -17 59 -88 133 -145 152
-55 19 -267 21 -323 3z m295 -172 l25 -24 0 -671 0 -671 -25 -24 c-23 -24 -31
-25 -135 -25 -104 0 -112 1 -135 25 l-25 24 0 671 0 671 25 24 c23 24 31 25
135 25 104 0 112 -1 135 -25z m2720 0 l25 -24 0 -671 0 -671 -25 -24 c-23 -24
-31 -25 -135 -25 -104 0 -112 1 -135 25 l-25 24 0 671 0 671 25 24 c23 24 31
25 135 25 104 0 112 -1 135 -25z m-1760 -160 l25 -24 0 -416 0 -415 80 0 80 0
0 375 0 376 25 24 c15 16 36 25 55 25 19 0 40 -9 55 -25 l25 -24 0 -376 0
-375 80 0 80 0 0 375 0 376 25 24 c15 16 36 25 55 25 19 0 40 -9 55 -25 l25
-24 0 -376 0 -375 80 0 80 0 0 335 0 336 25 24 c15 16 36 25 55 25 19 0 40 -9
55 -25 l25 -24 0 -523 0 -523 -80 -120 -80 -120 0 -172 0 -173 -400 0 -400 0
0 172 0 172 -90 136 -90 135 -150 113 -150 112 0 60 0 60 135 0 c131 0 137 1
160 25 l25 24 0 391 0 391 25 24 c15 16 36 25 55 25 19 0 40 -9 55 -25z
m-1415 -535 l0 -400 -95 0 c-88 0 -98 2 -120 25 l-25 24 0 351 0 351 25 24
c22 23 32 25 120 25 l95 0 0 -400z m3575 375 l25 -24 0 -351 0 -351 -25 -24
c-22 -23 -32 -25 -120 -25 l-95 0 0 400 0 400 95 0 c88 0 98 -2 120 -25z
m-3975 -375 l0 -160 -80 0 -80 0 0 160 0 160 80 0 80 0 0 -160z m1520 0 l0
-160 -240 0 -240 0 0 160 0 160 240 0 240 0 0 -160z m1600 0 l0 -160 -80 0
-80 0 0 160 0 160 80 0 80 0 0 -160z m1200 0 l0 -160 -80 0 -80 0 0 160 0 160
80 0 80 0 0 -160z m-1520 -1520 l0 -80 -560 0 -560 0 0 80 0 80 560 0 560 0 0
-80z"/>
</g>
</svg>
