<?xml version="1.0" standalone="no"?>
<!DOCTYPE svg PUBLIC "-//W3C//DTD SVG 20010904//EN"
 "http://www.w3.org/TR/2001/REC-SVG-20010904/DTD/svg10.dtd">
<svg version="1.0" xmlns="http://www.w3.org/2000/svg"
 width="192.000000pt" height="192.000000pt" viewBox="0 0 192.000000 192.000000"
 preserveAspectRatio="xMidYMid meet">

<g transform="translate(0.000000,192.000000) scale(0.100000,-0.100000)"
fill="#000000" stroke="none">
<path d="M359 1411 c-19 -20 -29 -40 -29 -60 0 -30 -1 -31 -46 -31 -37 0 -51
-5 -75 -29 -16 -16 -29 -36 -29 -45 0 -11 -14 -16 -57 -18 l-58 -3 0 -115 0
-115 58 -3 c43 -2 57 -7 57 -18 0 -9 13 -29 29 -45 24 -24 38 -29 75 -29 45 0
46 -1 46 -31 0 -20 10 -40 29 -60 26 -26 36 -29 91 -29 55 0 65 3 91 29 27 27
29 35 29 105 l0 76 30 0 c28 0 30 -2 30 -38 0 -36 5 -42 61 -83 86 -62 119
-113 119 -183 0 -52 -1 -55 -27 -58 l-28 -3 0 -85 0 -85 265 0 265 0 0 85 0
85 -27 3 c-27 3 -28 6 -28 58 0 45 6 64 30 99 27 40 30 51 30 124 l0 81 30 0
30 0 0 -76 c0 -70 2 -78 29 -105 26 -26 36 -29 91 -29 55 0 65 3 91 29 19 20
29 40 29 60 0 30 1 31 46 31 37 0 51 5 75 29 16 16 29 36 29 45 0 11 14 16 58
18 l57 3 0 115 0 115 -57 3 c-44 2 -58 7 -58 18 0 9 -13 29 -29 45 -24 24 -38
29 -75 29 -45 0 -46 1 -46 31 0 20 -10 40 -29 60 -26 26 -36 29 -91 29 -55 0
-65 -3 -91 -29 -27 -27 -29 -35 -29 -105 l0 -76 -30 0 c-21 0 -30 5 -30 16 0
8 -14 29 -30 46 -26 25 -37 29 -68 26 -26 -3 -45 1 -64 15 -20 15 -35 18 -60
13 -18 -4 -42 -6 -53 -6 -84 4 -103 8 -125 23 -37 26 -77 21 -111 -12 -24 -24
-29 -38 -29 -75 l0 -46 -90 0 -90 0 0 76 c0 70 -2 78 -29 105 -26 26 -36 29
-91 29 -55 0 -65 -3 -91 -29z m146 -301 l0 -265 -55 0 -55 0 -3 255 c-1 140 0
261 3 268 3 9 21 12 57 10 l53 -3 0 -265z m1020 0 l0 -265 -55 0 -55 0 -3 255
c-1 140 0 261 3 268 3 9 21 12 57 10 l53 -3 0 -265z m-657 43 l2 -163 30 0 29
0 3 148 3 147 25 0 25 0 3 -147 3 -148 29 0 29 0 3 148 3 147 25 0 25 0 3
-147 3 -148 29 0 29 0 3 133 3 132 25 0 25 0 3 -203 2 -203 -30 -44 c-26 -38
-30 -53 -30 -109 l0 -66 -150 0 -150 0 0 65 c0 58 -4 71 -35 118 -19 28 -60
70 -90 91 -39 28 -55 46 -55 62 0 21 5 23 58 26 l57 3 3 150 c1 83 4 156 7
163 3 7 15 12 27 10 23 -3 23 -5 26 -165z m-538 -44 l0 -150 -42 3 -43 3 -3
134 c-1 74 0 141 2 148 3 8 22 13 46 13 l40 0 0 -151z m1345 1 l0 -145 -42 -3
-43 -3 0 151 0 151 43 -3 42 -3 0 -145z m-1495 0 l0 -60 -30 0 -30 0 0 60 0
60 30 0 30 0 0 -60z m570 0 l0 -60 -90 0 -90 0 0 60 0 60 90 0 90 0 0 -60z
m600 0 l0 -60 -30 0 -30 0 0 60 0 60 30 0 30 0 0 -60z m450 0 l0 -60 -30 0
-30 0 0 60 0 60 30 0 30 0 0 -60z m-570 -570 l0 -30 -210 0 -210 0 0 30 0 30
210 0 210 0 0 -30z"/>
</g>
</svg>
